# xmcd
#
# Track frame offsets:
#	150
#	13244
#	28544
#	43813
#	59348
#	77058
#	92505
#	104553
#	119303
#	136438
#	148902
#	161424
#	173874
#	186565
#	204042
#
# Disc length: 2903 seconds
#
# Revision: 0
# Processed by: cddbd v1.5.2PL0 Copyright (c) Steve Scherf et al.
# Submitted via: MusicManager 7.3.0.0 
#
DISCID=d20b550f
DTITLE=ROBERT MIZZELL - THE LOUISIANA  MAN
DYEAR=2009
DGENRE=country
TTITLE0=THANKS A LOT
TTITLE1=LOUISIANA MAN
TTITLE2=ALCOHOL OF FAME
TTITLE3=WALK THE LINE REVISITED
TTITLE4=IF IT'S GONNA RAIN
TTITLE5=KICK ASS COUNTRY
TTITLE6=MUST YOU THROW DIRT IN MY FACE
TTITLE7=NEXT TO YOU, NEXT TO ME
TTITLE8=HOME
TTITLE9=FRIEND IN NEED
TTITLE10=ROSE OF MY HEART
TTITLE11=WHO'S GONNA DANCE WITH SALLY ANN
TTITLE12=LOUISIANA SATURDAY NIGHT
TTITLE13=SAY YOU LOVE ME
TTITLE14=WHITE LIGHTIN'
EXTD=
EXTT0=
EXTT1=
EXTT2=
EXTT3=
EXTT4=
EXTT5=
EXTT6=
EXTT7=
EXTT8=
EXTT9=
EXTT10=
EXTT11=
EXTT12=
EXTT13=
EXTT14=
PLAYORDER=
